<svg xmlns="http://www.w3.org/2000/svg" xml:space="preserve" style="fill-rule:evenodd;clip-rule:evenodd;stroke-linecap:round;stroke-linejoin:round" viewBox="0 0 115 115"><ellipse cx="60.559" cy="68.473" rx="45.19" ry="44.731" style="fill:#162d35" transform="matrix(1.2724 0 0 1.28546 -19.556 -30.52)"/><path d="M20 13c0 5-3.5 7.5-7.66 8.95a1 1 0 0 1-.67-.01C7.5 20.5 4 18 4 13V6c0-.549.451-1 1-1 2 0 4.5-1.2 6.24-2.72a1.175 1.175 0 0 1 1.52 0C14.51 3.81 17 5 19 5c.549 0 1 .451 1 1v7Z" style="fill:none;fill-rule:nonzero;stroke:#3eeaf5;stroke-width:2px" transform="matrix(4 0 0 4 9.5 9.493)"/></svg>